<?xml version="1.0"?>
<svg version="1.1" xmlns="http://www.w3.org/2000/svg" width="390px" height="65px" style=""><path fill="#1c92ff" d="M10.28,40.16l0.3,1.68s0.8,0.42,1.96,0.42c1.28,0,2.42-0.56,2.42-1.62c0-2.34-6.76-1.3-6.76-6.24c0-2.76,2.18-4.24,5.08-4.24c2.26,0,4.4,0.8,4.4,0.8l-0.1,3.64l-1.84,0l-0.5-1.7s-0.9-0.3-1.76-0.3c-1.42,0-2.12,0.62-2.12,1.42c0,2.32,6.74,1.4,6.74,6.1c0,3-2.32,4.64-5.4,4.64c-2.26,0-4.46-0.76-4.46-0.76l0-3.84l2.04,0z M28.2902,41.94l0.72,1.52c-0.98,0.72-2.1,1.24-3.4,1.24c-2.3,0-2.96-1.6-2.96-3.9l0-4.6l-1.86,0l0-1.94l1.86-0.26l0-2.76l3-0.54l0,3.3l2.8,0l0,2.2l-2.8,0l0,4.4c0,1.28,0.22,1.8,1.06,1.8c0.54,0,1.32-0.32,1.58-0.46z M41.0604,39.76l-6.64,0c0.12,1.6,1.04,2.54,2.42,2.54c1.66,0,3.36-0.94,3.36-0.94l0.86,1.66s-2,1.68-4.56,1.68c-3.44,0-5.2-2-5.2-5.4c0-3.5,1.98-5.8,5.34-5.8c2.98,0,4.54,1.84,4.54,4.7c0,0.76-0.12,1.5-0.12,1.56z M34.4604,37.9l3.62,0c0-1.14-0.48-2-1.64-2c-1.12,0-1.82,0.82-1.98,2z M49.9106,35.4l0-1.6l5.24-0.1l0,1.7l-1.14,0.26l-3.22,8.84l-3.3,0l-3.16-8.78l-0.96-0.32l0-1.6l5.24-0.1l0,1.7l-1.12,0.2l1.82,5.9l1.76-5.84z M67.1008,39.76l-6.64,0c0.12,1.6,1.04,2.54,2.42,2.54c1.66,0,3.36-0.94,3.36-0.94l0.86,1.66s-2,1.68-4.56,1.68c-3.44,0-5.2-2-5.2-5.4c0-3.5,1.98-5.8,5.34-5.8c2.98,0,4.54,1.84,4.54,4.7c0,0.76-0.12,1.5-0.12,1.56z M60.5008,37.9l3.62,0c0-1.14-0.48-2-1.64-2c-1.12,0-1.82,0.82-1.98,2z M74.251,33.7l0.14,1.38s1.9-1.54,3.68-1.54c1.94,0,3.04,1.38,3.04,3.56l0,5.3l1.4,0.5l0,1.6l-5.5,0l0-1.6l1.1-0.5l0-4.76c0-0.92-0.52-1.6-1.36-1.6c-1.24,0-2.14,1.14-2.14,1.14l0,5.22l1.1,0.5l0,1.6l-5.7,0l0-1.6l1.6-0.5l0-6.5l-1.6-0.5l0-1.6z M90.5914,32.2l0-1.7l5.94-0.1l0,1.8l-1.46,0.6l1.72,7.2l2.8-9.44l2.7-0.16l2.68,9.58l1.92-7.18l-1.5-0.6l0-1.7l5.7-0.1l0,1.8l-1.44,0.6l-3.42,11.7l-2.84,0l-2.62-9.5l-0.48,1.9l-2.3,7.6l-2.76,0l-3.24-11.72z M120.1016,44.5l-0.36-1.3s-1.54,1.5-3.24,1.5c-1.94,0-3.12-1.14-3.12-3.14c0-2.36,1.78-3.3,4.82-3.3l1.4,0l0-1.1c0-1.02-0.54-1.46-1.54-1.46c-1.02,0-1.76,0.3-1.76,0.3l-0.3,1.26l-1.8,0l-0.14-2.96s2.42-0.8,4.34-0.8c3.04,0,4.2,1.06,4.2,3.96l0,4.94l1.5,0.36l0,1.6z M119.6016,39.96l-1.14,0c-1.56,0-2.18,0.4-2.18,1.3c0,0.76,0.42,1.2,1.18,1.2c1.06,0,2.14-1.16,2.14-1.16l0-1.34z M133.7918,41.94l0.72,1.52c-0.98,0.72-2.1,1.24-3.4,1.24c-2.3,0-2.96-1.6-2.96-3.9l0-4.6l-1.86,0l0-1.94l1.86-0.26l0-2.76l3-0.54l0,3.3l2.8,0l0,2.2l-2.8,0l0,4.4c0,1.28,0.22,1.8,1.06,1.8c0.54,0,1.32-0.32,1.58-0.46z M141.102,37.72l1.32,0l1.36-2.04l-0.88-0.28l0-1.6l5.16-0.1l0,1.7l-1.4,0.26l-1.86,2.62l2.24,4.14l1.52,0.48l0,1.6l-3.7,0l-2.48-4.88l-1.28,0l0,2.78l1.1,0.5l0,1.6l-5.7,0l0-1.6l1.6-0.5l0-11.24l-1.6-0.4l0-1.6l4.6-0.16l0,8.72z M152.0922,30.4c0-1.14,0.82-1.8,1.72-1.8c1.04,0,1.68,0.54,1.68,1.8c0,1.18-0.86,1.82-1.68,1.82c-1.08,0-1.72-0.64-1.72-1.82z M155.4522,42.4l1.4,0.5l0,1.6l-6,0l0-1.6l1.6-0.5l0-6.5l-1.6-0.5l0-1.6l4.6-0.1l0,8.7z M163.7824,33.7l0.14,1.38s1.9-1.54,3.68-1.54c1.94,0,3.04,1.38,3.04,3.56l0,5.3l1.4,0.5l0,1.6l-5.5,0l0-1.6l1.1-0.5l0-4.76c0-0.92-0.52-1.6-1.36-1.6c-1.24,0-2.14,1.14-2.14,1.14l0,5.22l1.1,0.5l0,1.6l-5.7,0l0-1.6l1.6-0.5l0-6.5l-1.6-0.5l0-1.6z M176.4926,41l0.16,1.3s0.7,0.2,1.68,0.2c1.1,0,1.64-0.34,1.64-0.98c0-1.64-5.34-1.04-5.34-4.6c0-2.5,2-3.42,4.12-3.42c1.8,0,3.72,0.6,3.72,0.6l-0.08,3l-1.7,0l-0.3-1.2s-0.58-0.2-1.38-0.2c-0.86,0-1.38,0.36-1.38,1.02c0,1.62,5.34,0.92,5.34,4.38c0,2.3-1.86,3.6-4.6,3.6c-1.9,0-3.68-0.44-3.68-0.44l0-3.26l1.8,0z M186.3628,42.94c0-1.14,0.82-1.8,1.72-1.8c1.1,0,1.68,0.66,1.68,1.8c0,1.16-0.82,1.82-1.72,1.82c-1.1,0-1.68-0.66-1.68-1.82z"/><path fill="#4caf50" d="M198.6,41.7l0-10.8l-1.7-0.4l0-1.1l3.8-0.1l2.5,0c3.9,0,6.3,2.4,6.3,6.8s-2.6,7.2-6.6,7.2l-6,0l0-1.2z M200.7,41.7l2.3,0c2.5,0,4.2-1.7,4.2-5.5c0-3.7-1.6-5.3-4.1-5.3l-2.4,0l0,10.8z M214.072,29.4c0-0.9,0.6-1.4,1.3-1.4c0.8,0,1.3,0.4,1.3,1.4c0,0.9-0.7,1.4-1.3,1.4c-0.8,0-1.3-0.5-1.3-1.4z M217.972,42.2l0,1.1l-5.2,0l0-1.1l1.7-0.5l0-7.4l-1.7-0.4l0-1.1l3.7-0.1l0,9z M231.244,33.9l-1.94,0.28s0.54,0.72,0.54,2.02c0,2.7-1.8,3.9-4.4,3.9c-0.9,0-1.5-0.18-1.5-0.18l-0.1,1.88l3.1,0c2.6,0,4,1,4,2.9c0,2.2-1.7,3.6-5.2,3.6c-2.8,0-4.8-0.7-4.8-2.9c0-1.8,2.1-2.5,2.1-2.5s-1.2-0.1-1.2-1.14c0-0.66,1.04-2.26,1.04-2.26s-1.54-0.7-1.54-3.1c0-2.6,1.8-3.9,4.4-3.9c1.3,0,2,0.38,2,0.38l3.5-0.08l0,1.1z M225.644,33.9c-1.6,0-2.3,0.8-2.3,2.4c0,1.4,0.7,2.4,2.2,2.4c1.6,0,2.3-0.7,2.3-2.4c0-1.5-0.7-2.4-2.2-2.4z M226.444,43.3l-2.2,0s-1.3,0.6-1.3,1.8c0,1.4,1.2,1.7,3.1,1.7c2,0,3-0.6,3-1.9s-1-1.6-2.6-1.6z M235.216,29.4c0-0.9,0.6-1.4,1.3-1.4c0.8,0,1.3,0.4,1.3,1.4c0,0.9-0.7,1.4-1.3,1.4c-0.8,0-1.3-0.5-1.3-1.4z M239.116,42.2l0,1.1l-5.2,0l0-1.1l1.7-0.5l0-7.4l-1.7-0.4l0-1.1l3.7-0.1l0,9z M248.488,32.8l0,1.5l-2.9,0l0,6.42c0,0.92,0.44,1.22,1,1.22c0.48,0,1.04-0.22,1.56-0.5l0.54,1.06c-0.9,0.66-1.8,1-2.8,1c-1.2,0-2.3-0.66-2.3-2.9l0-6.3l-2,0l0-1.3l2-0.2l0-2.52l2-0.4l0,2.92l2.9,0z M256.5,42.2l0,1.1l-5.54,0l0-1.1l1.7-0.5l0-12.2l-1.7-0.4l0-1.1l3.74-0.1l0,13.8z M265.684,41.72l4.56-12.32l2-0.1l4.44,12.42l1.66,0.38l0,1.2l-5.8,0l0-1.2l1.86-0.38l-0.76-2.22l-5.2,0l-0.78,2.22l1.88,0.38l0,1.2l-5.5,0l0-1.2z M273.104,37.9l-2.02-6.02l-2.1,6.02l4.12,0z M285.856,42.2l0,1.1l-5.54,0l0-1.1l1.7-0.5l0-12.2l-1.7-0.4l0-1.1l3.74-0.1l0,13.8z M295.328,36l-0.3-1.7s-0.8-0.2-1.8-0.2c-1.9,0-3,1.2-3,3.7c0,2.7,1.2,4.1,3.1,4.1s3.1-1.2,3.1-1.2l0.7,1.2s-1.8,1.6-4,1.6c-3.3,0-5-2.1-5-5.5c0-3.2,2-5.5,5.2-5.5c1.8,0,3.4,0.8,3.4,0.8l-0.1,2.7l-1.3,0z M303.1,27.9l0,6.04c0.62-0.52,2.02-1.44,3.5-1.44c2.2,0,3.2,1.4,3.2,3.6l0,5.6l1.5,0.5l0,1.1l-4.8,0l0-1.1l1.3-0.48l0-5.42c0-1.4-0.44-2.1-1.74-2.1c-1.7,0-2.96,1.6-2.96,1.6l0,5.9l1.3,0.5l0,1.1l-5,0l0-1.1l1.7-0.5l0-12.2l-1.7-0.4l0-1.1z M323.072,38.3l-6.9,0c0,2.2,1.18,3.6,2.9,3.6c2,0,3.36-1.1,3.36-1.1l0.7,1.04s-1.86,1.66-4.26,1.66c-3.2,0-4.8-2.1-4.8-5.4c0-3.2,2-5.6,4.9-5.6s4.2,1.7,4.2,4.7c0,0.5-0.1,1.06-0.1,1.1z M316.252,36.8l4.8,0c0-1.5-0.58-2.74-2.18-2.74s-2.5,1.24-2.62,2.74z M329.544,32.7l0.18,1.42c0.46-0.44,1.98-1.62,3.62-1.62c1.44,0,2.32,0.68,2.78,1.72c0.26-0.26,1.88-1.72,3.72-1.72c2.2,0,3.1,1.4,3.1,3.6l0,5.6l1.5,0.5l0,1.1l-4.8,0l0-1.1l1.3-0.5l0-5.4c0-1.4-0.4-2.1-1.7-2.1c-1.7,0-2.8,1.6-2.8,1.6l0,5.9l1.3,0.5l0,1.1l-4.6,0l0-1.1l1.3-0.5l0-5.4c0-1.4-0.4-2.1-1.7-2.1c-1.7,0-2.8,1.6-2.8,1.6l0,5.9l1.3,0.5l0,1.1l-5,0l0-1.1l1.7-0.5l0-7.4l-1.7-0.4l0-1.1z M349.916,34.1l2.4,7l2.2-6.9l-1.4-0.3l0-1.1l4.74-0.1l0,1.2l-1.3,0.2l-2.84,7.92c-1.06,2.78-2.1,6.08-5.4,6.08c-0.5,0-1.28-0.1-1.28-0.1l0.18-1.4l1,0c1.4,0,2.3-1.32,3.18-3.26l-3.58-9.14l-1.2-0.3l0-1.1l4.7-0.1l0,1.2z M361.648,40.1l0.22,1.72s0.6,0.18,1.68,0.18c1.2,0,2.26-0.34,2.26-1.58c0-2.16-5.58-1.16-5.58-4.8c0-2.08,1.6-3.12,3.66-3.12c1.58,0,3.42,0.6,3.42,0.6l-0.06,2.7l-1.3,0l-0.32-1.56s-0.62-0.24-1.62-0.24c-1.02,0-1.78,0.32-1.78,1.34c0,2.14,5.58,1.32,5.58,4.74c0,2.3-2,3.42-4.4,3.42c-1.84,0-3.16-0.44-3.16-0.44l0-2.96l1.4,0z M377.38,32.8l0,1.5l-2.9,0l0,6.42c0,0.92,0.44,1.22,1,1.22c0.48,0,1.04-0.22,1.56-0.5l0.54,1.06c-0.9,0.66-1.8,1-2.8,1c-1.2,0-2.3-0.66-2.3-2.9l0-6.3l-2,0l0-1.3l2-0.2l0-2.52l2-0.4l0,2.92l2.9,0z"/></svg>
